# AST/ASF file generated using VICON BodyLanguage
# -----------------------------------------------
:version 1.10
:name VICON
:units
  mass 1.0
  length 0.45
  angle deg
:documentation
   .ast/.asf automatically generated from VICON data using
   VICON BodyBuilder and BodyLanguage model FoxedUp or BRILLIANT.MOD
:root
   order TX TY TZ RX RY RZ
   axis XYZ
   position 0 0 0  
   orientation 0 -0 0 
:bonedata
  begin
     id 1 
     name lhipjoint
     direction 0.515797 -0.759363 0.396637 
     length 2.47888 
     axis 0 -0 0  XYZ
  end
  begin
     id 2 
     name lfemur
     direction 0.34202 -0.939693 0  
     length 6.81885  
     axis 0 -0 20  XYZ
    dof rx ry rz
    limits (-160.0 20.0)
           (-70.0 70.0)
           (-60.0 70.0)
  end
  begin
     id 3 
     name ltibia
     direction 0.342037 -0.939687 0   
     length 7.89258   
     axis 0 -0 20   XYZ
    dof rx
    limits (-10.0 170.0)
  end
  begin
     id 4 
     name lfoot
     direction 0.173497 -0.476678 0.861787   
     length 2.51543   
     axis -90 -1.13533e-015 20   XYZ
    dof rx rz
    limits (-45.0 90.0)
           (-70.0 20.0)
  end
  begin
     id 5 
     name ltoes
     direction 1.53564e-011 -4.21897e-011 1   
     length 1.21388   
     axis -90 -1.13533e-015 20   XYZ
    dof rx
    limits (-90.0 20.0)
  end
  begin
     id 6 
     name rhipjoint
     direction -0.489454 -0.772941 0.403729   
     length 2.43534  
     axis 0 -0 0  XYZ 
  end
  begin
     id 7 
     name rfemur
     direction -0.34202 -0.939693 0   
     length 7.10357   
     axis 0 -0 -20   XYZ
    dof rx ry rz
    limits (-160.0 20.0)
           (-70.0 70.0)
           (-70.0 60.0)
  end
  begin
     id 8 
     name rtibia
     direction -0.34202 -0.939693 0   
     length 9.16127   
     axis 0 -0 -20   XYZ
    dof rx
    limits (-10.0 170.0)
 end
 begin
     id 9 
     name rfoot
     direction -0.270974 -0.748671 0.605033   
     length 1.74894  
     axis -90 1.13533e-015 -20   XYZ
    dof rx rz
    limits (-45.0 90.0)
           (-20.0 70.0)
  end
  begin
     id 10 
     name rtoes
     direction -1.53557e-011 -4.21759e-011 1   
     length 0.787585   
     axis -90 1.13533e-015 -20   XYZ
    dof rx
    limits (-90.0 20.0)
  end
  begin
     id 11 
     name lowerback
     direction -0.0140249 0.999561 0.0260968   
     length 2.16963   
     axis 0 -0 0   XYZ
    dof rx ry rz
    limits (-20.0 45.0)
           (-30.0 30.0)
           (-30.0 30.0)
  end
  begin
     id 12 
     name upperback
     direction 0.00860018 0.999959 -0.002711   
     length 2.1726   
     axis 0 -0 0   XYZ
    dof rx ry rz
    limits (-20.0 45.0)
           (-30.0 30.0)
           (-30.0 30.0)
  end
  begin
     id 13 
     name thorax
     direction 0.015211 0.999782 -0.0143191   
     length 2.17061   
     axis 0 -0 0   XYZ
    dof rx ry rz
    limits (-20.0 45.0)
           (-30.0 30.0)
           (-30.0 30.0)
  end
  begin
     id 14 
     name lowerneck
     direction -0.0140143 0.999447 0.030145   
     length 2.26749   
     axis 0 -0 0   XYZ
    dof rx ry rz
    limits (-20.0 45.0)
           (-30.0 30.0)
           (-30.0 30.0)
  end
  begin
     id 15 
     name upperneck
     direction 0.118062 0.961438 -0.248392   
     length 2.22728   
     axis 0 -0 0   XYZ
    dof rx ry rz
    limits (-20.0 45.0)
           (-30.0 30.0)
           (-30.0 30.0)
  end
  begin
     id 16
     name head
     direction 0.0431885 0.9954 -0.085514  
     length 2.28786  
     axis 0 -0 0   XYZ
    dof rx ry rz
    limits (-20.0 45.0)
           (-30.0 30.0)
           (-30.0 30.0)
  end
  begin
     id 17 
     name lclavicle
     direction 0.912126 0.409548 0.0172323  
     length 4.31571  
     axis 0 -0 0   XYZ
    dof ry rz
    limits (-20.0 10.0)
           (0.0 20.0)
  end
  begin
     id 18 
     name lhumerus
     direction 1 -4.48977e-011 1.93091e-027   
     length 5.13658   
     axis 180 -30 -90   XYZ
    dof rx ry rz
    limits (-60.0 90.0)
           (-90.0 90.0)
           (-90.0 90.0)
  end
  begin
     id 19
     name lradius
     direction 1 -4.48916e-011 6.84018e-027   
     length 3.22473   
     axis 180 -30 -90   XYZ
    dof rx
    limits (-10.0 170.0)
  end
  begin
     id 20
     name lwrist
     direction 1 -4.48987e-011 7.01981e-027   
     length 1.61236   
     axis -4.37994e-015 90 90   XYZ
    dof ry
    limits (-180.0 0.0)
 end
  begin
     id 21 
     name lhand
     direction 1 -4.49037e-011 1.40335e-026   
     length 0.936406   
     axis -8.96029e-015 90 90   XYZ
    dof rx rz
    limits (-90.0 90.0)
           (-45.0 45.0)
  end
  begin
     id 22 
     name lfingers
     direction 1 -4.48886e-011 2.8104e-026   
     length 0.754955   
     axis -1.79203e-014 90 90   XYZ
    dof rx
    limits (0.0 90.0)
  end
  begin
     id 23
     name lthumb
     direction 0.707107 -6.34937e-011 0.707107   
     length 1.08397   
     axis -90 45 -4.48555e-014   XYZ
    dof rx rz
    limits (-45.0 45.0)
           (-45.0 45.0)
  end
  begin
     id 24 
     name rclavicle
     direction -0.947962 0.317997 0.0156638   
     length 4.86918  
     axis 0 -0 0   XYZ 
    dof ry rz
    limits (-10.0 20.0)
           (-20.0 0.0)
  end
  begin
     id 25 
     name rhumerus
     direction -1 -4.48951e-011 2.80534e-018  
     length 5.60911   
     axis 180 30 90   XYZ
    dof rx ry rz
    limits (-90.0 60.0)
           (-90.0 90.0)
           (-90.0 90.0)
  end
  begin
     id 26 
     name rradius
     direction -1 -4.4898e-011 2.11315e-027   
     length 3.38704   
     axis 180 30 90   XYZ
    dof rx
    limits (-10.0 170.0)
  end
  begin
     id 27 
     name rwrist
     direction -1 -4.48933e-011 7.02314e-027   
     length 1.69352   
     axis -4.37994e-015 -90 -90   XYZ
    dof ry
    limits (-180.0 0.0)
  end
  begin
     id 28
     name rhand
     direction -1 -4.48937e-011 1.40458e-026   
     length 0.755878   
     axis -8.96029e-015 -90 -90   XYZ
    dof rx rz
    limits (-90.0 90.0)
           (-45.0 45.0)
  end
  begin
     id 29
     name rfingers
     direction -1 -4.4901e-011 2.80737e-026   
     length 0.609409   
     axis -1.79203e-014 -90 -90   XYZ
    dof rx
    limits (0.0 90.0)
  end
  begin
     id 30
     name rthumb
     direction -0.707107 -6.34968e-011 0.707107   
     length 0.874992   
     axis -90 -45 4.48555e-014   XYZ
    dof rx rz
    limits (-45.0 45.0)
           (-45.0 45.0)
  end
:hierarchy
  begin
    root lhipjoint rhipjoint lowerback
    lhipjoint lfemur
    lfemur ltibia
    ltibia lfoot
    lfoot ltoes
    rhipjoint rfemur
    rfemur rtibia
    rtibia rfoot
    rfoot rtoes
    lowerback upperback
    upperback thorax
    thorax lowerneck lclavicle rclavicle
    lowerneck upperneck
    upperneck head
    lclavicle lhumerus
    lhumerus lradius
    lradius lwrist
    lwrist lhand lthumb
    lhand lfingers
    rclavicle rhumerus
    rhumerus rradius
    rradius rwrist
    rwrist rhand rthumb
    rhand rfingers
  end

#!OML:ASF C:\ViconDB\ViconDB\414\Spring2016\041811\Spring2016.ASF
:FULLY-SPECIFIED
:DEGREES
124
root 8.85374 16.0367 -4.08981 -172.147 0.212188 -178.244
lowerback 30.9858 -0.701019 -2.0247
upperback 4.25212 -0.317503 0.0820665
thorax -11.4046 0.447931 1.19651
lowerneck -13.4689 -5.72033 -14.0329
upperneck 1.13307 -6.0587 22.4697
head 3.87069 -1.84908 9.07473
rclavicle 1.39149e-014 3.57812e-015
rhumerus -45.6671 -5.72004 -82.3146
rradius 54.5842
rwrist 13.0869
rhand -37.3496 -16.9771
rfingers 7.12502
rthumb -10.4119 -46.6993
lclavicle 1.39149e-014 3.57812e-015
lhumerus -35.4366 -4.16741 77.478
lradius 52.4315
lwrist -4.93604
lhand -35.0592 17.103
lfingers 7.12502
lthumb -8.20191 46.9238
rfemur -50.3381 -18.0029 26.0123
rtibia 67.59
rfoot -7.3786 -9.71923
rtoes -7.93804
lfemur -54.6963 14.6921 -14.194
ltibia 67.2257
lfoot -17.8265 -7.80746
ltoes -10.9803
125
root 8.84248 15.7371 -4.24452 -171.416 0.0283451 -178.292
lowerback 31.0262 -0.741593 -2.10087
upperback 4.1932 -0.398088 0.173772
thorax -11.4835 0.410836 1.3666
lowerneck -13.574 -5.72971 -13.7555
upperneck 0.465458 -5.95647 22.2291
head 3.65509 -1.8062 8.94211
rclavicle -5.56597e-015 -1.31198e-014
rhumerus -45.6317 -7.1253 -82.3843
rradius 51.7768
rwrist 13.7769
rhand -37.4236 -17.5425
rfingers 7.12502
rthumb -10.4833 -47.2611
lclavicle -5.56597e-015 -1.31198e-014
lhumerus -35.5493 -2.89389 78.3775
lradius 49.9984
lwrist -4.32985
lhand -34.7088 17.4974
lfingers 7.12502
lthumb -7.86372 47.3312
rfemur -53.2839 -18.1992 25.9845
rtibia 71.8137
rfoot -6.62325 -10.7549
rtoes -6.82962
lfemur -57.7329 15.3009 -14.6069
ltibia 71.1925
lfoot -19.2713 -8.24249
ltoes -11.2373
126
root 8.82588 15.4528 -4.40521 -170.867 -0.0744963 -178.276
lowerback 31.0345 -0.735107 -2.08209
upperback 4.29468 -0.342115 0.321839
thorax -11.3752 0.443549 1.49209
lowerneck -13.4488 -5.92821 -13.971
upperneck -0.563298 -6.01278 22.5086
head 3.37279 -1.83452 9.06665
rclavicle -1.39149e-015 7.95139e-016
rhumerus -45.4267 -9.07128 -82.0401
rradius 49.1487
rwrist 14.5414
rhand -37.454 -17.8122
rfingers 7.12502
rthumb -10.5127 -47.5293
lclavicle -1.39149e-015 7.95139e-016
lhumerus -35.3185 -1.40094 79.329
lradius 47.7647
lwrist -4.06085
lhand -33.8738 18.4552
lfingers 7.12502
lthumb -7.05771 48.3175
rfemur -55.6425 -18.5231 25.9355
rtibia 75.6059
rfoot -6.05535 -11.9081
rtoes -5.21476
lfemur -60.2467 15.6324 -14.6861
ltibia 74.9305
lfoot -20.9193 -8.73654
ltoes -11.7331
127
root 8.80529 15.1859 -4.56556 -170.348 -0.134411 -178.264
lowerback 31.2006 -0.742921 -1.96056
upperback 4.25321 -0.313501 0.340649
thorax -11.4947 0.453375 1.43551
lowerneck -13.5421 -5.94232 -13.9507
upperneck -1.07692 -5.90246 22.68
head 3.23105 -1.76017 9.13113
rclavicle -7.95139e-015 7.95139e-016
rhumerus -45.5902 -11.5503 -81.5212
rradius 46.887
rwrist 16.2627
rhand -37.5115 -17.5929
rfingers 7.12502
rthumb -10.5681 -47.3072
lclavicle -7.95139e-015 7.95139e-016
lhumerus -35.1317 0.489146 79.9774
lradius 45.6357
lwrist -4.23661
lhand -33.175 18.5121
lfingers 7.12502
lthumb -6.38312 48.3959
rfemur -57.5942 -18.9277 25.9533
rtibia 78.8891
rfoot -4.88428 -13.0127
rtoes -4.62284
lfemur -62.3195 15.9374 -14.8131
ltibia 78.1807
lfoot -22.6791 -9.00966
ltoes -12.0691
128
root 8.77662 14.9484 -4.72409 -169.683 -0.101943 -178.059
lowerback 31.0113 -0.703954 -1.65309
upperback 4.3011 -0.144094 0.455338
thorax -11.3718 0.517739 1.32899
lowerneck -13.6462 -6.08724 -14.0179
upperneck -1.80813 -5.91765 22.8254
head 3.05434 -1.75081 9.18942
rclavicle 1.17283e-014 -7.95139e-015
rhumerus -45.5484 -14.3131 -80.6819
rradius 44.9675
rwrist 17.7224
rhand -37.4146 -16.8966
rfingers 7.12502
rthumb -10.4746 -46.6157
lclavicle 1.17283e-014 -7.95139e-015
lhumerus -34.7116 2.30683 80.7205
lradius 43.7162
lwrist -5.04793
lhand -33.0295 18.9976
lfingers 7.12502
lthumb -6.24271 48.8856
rfemur -59.4782 -19.4694 26.3011
rtibia 81.6518
rfoot -3.66418 -14.1356
rtoes -4.38234
lfemur -64.3412 16.3195 -14.8168
ltibia 81.0916
lfoot -24.3349 -9.12559
ltoes -12.5206
129
root 8.75657 14.7582 -4.87348 -169.27 -0.067764 -177.854
lowerback 31.2464 -0.63916 -1.48319
upperback 4.32794 0.0280979 0.581904
thorax -11.4488 0.599018 1.30544
lowerneck -13.7447 -6.27141 -14.1927
upperneck -2.36365 -6.01179 23.0707
head 2.95185 -1.77563 9.29641
rclavicle -3.97569e-016 3.77691e-015
rhumerus -45.4555 -16.6267 -80.1198
rradius 43.587
rwrist 18.6791
rhand -37.6828 -17.1561
rfingers 7.12502
rthumb -10.7334 -46.8619
lclavicle -3.97569e-016 3.77691e-015
lhumerus -34.2838 3.40301 81.506
lradius 42.1739
lwrist -5.35849
lhand -33.2648 19.088
lfingers 7.12502
lthumb -6.46986 48.9692
rfemur -60.6653 -19.6162 26.4961
rtibia 83.8361
rfoot -2.4187 -15.104
rtoes -4.42637
lfemur -65.663 16.7112 -14.7514
ltibia 83.4841
lfoot -25.928 -9.03796
ltoes -13.3609
130
root 8.72867 14.5808 -5.01917 -168.823 -0.110649 -177.716
lowerback 31.543 -0.661363 -1.25313
upperback 4.25037 0.0850009 0.675476
thorax -11.6648 0.618572 1.25802
lowerneck -13.6703 -6.32032 -13.9897
upperneck -3.07435 -5.96027 22.8151
head 2.70549 -1.76686 9.17339
rclavicle -1.39149e-015 -4.96962e-015
rhumerus -45.2579 -18.2308 -79.9178
rradius 42.7694
rwrist 18.5335
rhand -37.9638 -17.7202
rfingers 7.12502
rthumb -11.0044 -47.4117
lclavicle -1.39149e-015 -4.96962e-015
lhumerus -33.87 4.13682 82.3507
lradius 41.0667
lwrist -5.6746
lhand -33.6704 19.3434
lfingers 7.12502
lthumb -6.86139 49.2122
rfemur -61.7051 -19.8615 26.5126
rtibia 85.7505
rfoot -1.69306 -15.996
rtoes -4.14749
lfemur -66.9503 16.8486 -14.7015
ltibia 85.6618
lfoot -27.2681 -8.9625
ltoes -13.8819
131
root 8.70663 14.4454 -5.17575 -168.394 -0.112352 -177.727
lowerback 31.6903 -0.629151 -1.19405
upperback 4.22833 0.153023 0.713174
thorax -11.754 0.649184 1.2395
lowerneck -13.5097 -6.5031 -14.2203
upperneck -3.8116 -6.03593 23.1386
head 2.51259 -1.79661 9.32283
rclavicle -7.35503e-015 -9.93923e-016
rhumerus -44.7328 -18.8041 -80.5181
rradius 42.3824
rwrist 17.935
rhand -38.9557 -17.8193
rfingers 7.12502
rthumb -11.9609 -47.4576
lclavicle -7.35503e-015 -9.93923e-016
lhumerus -33.4106 4.02301 83.2714
lradius 40.7341
lwrist -5.10453
lhand -34.1281 19.5649
lfingers 7.12502
lthumb -7.30323 49.4189
rfemur -62.3548 -20.0656 26.3324
rtibia 87.2524
rfoot -0.88072 -16.8206
rtoes -3.84617
lfemur -67.8471 16.8832 -14.7204
ltibia 87.4501
lfoot -28.5267 -8.92246
ltoes -13.8633
